#!OML:ASF E:\inclinewalkrobotboard\Project 1\Capture day 1\Session 1\subject1.ASF
:FULLY-SPECIFIED
:DEGREES
375
root 7.94291 25.1406 -12.1003 -170.601 3.43953 179.718
lowerback -5.93694 0.0486257 -6.67483
upperback 2.07096 0.525063 1.72876
thorax 5.43934 -0.000509124 5.63343
lowerneck -2.16666 -0.812074 -6.96817
upperneck 16.6979 -1.07775 10.4603
head 5.4308 0.153295 4.46039
rclavicle -8.94531e-016 -9.93923e-015
rhumerus -37.6854 -28.8058 -71.4714
rradius 26.1389
rwrist 12.844
rhand -15.9686 -34.436
rfingers 7.12502
rthumb 10.2304 -64.1672
lclavicle -8.94531e-016 -9.93923e-015
lhumerus -33.3858 23.9301 75.0725
lradius 12.0864
lwrist -42.7182
lhand -24.0769 -22.1256
lfingers 7.12502
lthumb 2.40314 7.84058
rfemur -9.65992 7.45152 17.4594
rtibia 12.7862
rfoot -23.2717 -3.82344
rtoes -26.4949
lfemur -7.83757 -9.10203 -21.8194
ltibia 11.6888
lfoot -27.7432 3.88092
ltoes -63.0495
376
root 7.9517 25.1415 -12.1162 -170.393 3.4833 179.836
lowerback -6.13746 0.275259 -6.44986
upperback 1.94144 0.821133 1.65717
thorax 5.37473 0.160385 5.46117
lowerneck -1.98162 -0.817293 -6.3488
upperneck 15.7563 -1.09323 9.86468
head 5.10803 0.091257 4.1363
rclavicle -5.2181e-016 -8.15017e-015
rhumerus -37.4199 -27.8601 -72.4273
rradius 26.946
rwrist 11.9407
rhand -15.9593 -35.5385
rfingers 7.12502
rthumb 10.2394 -65.2693
lclavicle -5.2181e-016 -8.15017e-015
lhumerus -33.4876 24.6763 74.4137
lradius 11.7265
lwrist -44.0764
lhand -24.3762 -22.1703
lfingers 7.12502
lthumb 2.11404 7.79898
rfemur -9.90042 7.47 17.5832
rtibia 12.8763
rfoot -23.3397 -3.83563
rtoes -26.8959
lfemur -8.07148 -9.19269 -21.6089
ltibia 11.8185
lfoot -27.9049 4.13539
ltoes -63.1447
377
root 7.95722 25.1289 -12.1607 -170.71 3.31735 178.987
lowerback -6.2409 0.265507 -7.17902
upperback 2.04312 0.894697 1.36768
thorax 5.52981 0.167969 5.58004
lowerneck -1.65598 -0.791722 -5.67701
upperneck 14.7238 -1.03495 8.88272
head 4.72958 0.0357092 3.68827
rclavicle -6.95746e-016 -4.57205e-015
rhumerus -37.0187 -26.7292 -73.3751
rradius 27.5283
rwrist 11.3086
rhand -15.8616 -36.4855
rfingers 7.12502
rthumb 10.3337 -66.2116
lclavicle -6.95746e-016 -4.57205e-015
lhumerus -33.6066 25.2725 73.8942
lradius 11.449
lwrist -45.0045
lhand -24.961 -22.5223
lfingers 7.12502
lthumb 1.54927 7.45177
rfemur -9.18629 6.75005 16.6622
rtibia 12.5468
rfoot -23.4385 -3.3873
rtoes -26.8375
lfemur -7.4633 -9.2084 -22.8438
ltibia 11.7456
lfoot -28.0571 3.9102
ltoes -63.2453
378
root 7.97095 25.1234 -12.1516 -170.425 3.61999 179.133
lowerback -6.19781 0.337758 -7.20787
upperback 1.84796 0.976165 1.4812
thorax 5.28398 0.220288 5.72157
lowerneck -1.75872 -0.663101 -5.61522
upperneck 14.1376 -0.85432 8.44065
head 4.55492 0.0656179 3.53457
rclavicle -4.00054e-015 1.37161e-014
rhumerus -36.3949 -25.3333 -74.1718
rradius 27.7952
rwrist 10.8584
rhand -16.0315 -36.8411
rfingers 7.12502
rthumb 10.1698 -66.5753
lclavicle -4.00054e-015 1.37161e-014
lhumerus -33.7375 24.8235 74.2413
lradius 11.6891
lwrist -43.861
lhand -25.1093 -22.3098
lfingers 7.12502
lthumb 1.40599 7.66536
rfemur -9.82572 7.21184 16.8069
rtibia 12.931
rfoot -23.4813 -3.49654
rtoes -26.8552
lfemur -7.98123 -9.11265 -22.5214
ltibia 12.0726
lfoot -28.1863 4.23827
ltoes -63.324
379
root 7.98542 25.1222 -12.159 -170.3 4.12357 179.37
lowerback -6.23605 0.714317 -7.08022
upperback 1.72428 1.46948 1.4228
thorax 5.10276 0.480675 5.63451
lowerneck -1.85314 -0.684599 -5.14545
upperneck 13.5535 -0.904294 8.17444
head 4.39529 0.0233573 3.35967
rclavicle 1.01629e-014 -5.76476e-015
rhumerus -36.323 -25.0482 -74.6528
rradius 28.2126
rwrist 10.8211
rhand -16.0098 -36.9006
rfingers 7.12502
rthumb 10.1907 -66.6338
lclavicle 1.01629e-014 -5.76476e-015
lhumerus -33.5245 22.8004 75.2089
lradius 12.326
lwrist -41.5884
lhand -24.4913 -21.5886
lfingers 7.12502
lthumb 2.00287 8.38171
rfemur -10.1501 7.72814 17.0853
rtibia 13.1442
rfoot -23.5054 -3.43249
rtoes -26.5675
lfemur -8.04419 -8.99999 -22.1725
ltibia 12.0412
lfoot -28.2512 4.70956
ltoes -63.4115
380
root 7.99296 25.1114 -12.1979 -170.253 3.22073 179.079
lowerback -6.50023 0.438396 -7.29567
upperback 1.68433 1.13952 1.38166
thorax 5.2587 0.305263 5.68676
lowerneck -2.0469 -0.71125 -5.30342
upperneck 13.2024 -0.927839 7.86877
head 4.32395 -0.0354177 3.28359
rclavicle 9.39258e-015 -1.07344e-014
rhumerus -36.1534 -24.5669 -75.039
rradius 28.4412
rwrist 11.2903
rhand -15.7354 -36.694
rfingers 7.12502
rthumb 10.4554 -66.414
lclavicle 9.39258e-015 -1.07344e-014
lhumerus -33.5829 21.3876 75.99
lradius 13.0151
lwrist -39.8234
lhand -24.1261 -21.2931
lfingers 7.12502
lthumb 2.35559 8.67364
rfemur -9.51351 6.83104 16.9289
rtibia 12.5865
rfoot -23.6146 -3.4881
rtoes -26.3121
lfemur -8.00993 -9.12341 -22.5669
ltibia 12.1419
lfoot -28.2122 3.80515
ltoes -63.4197
381
root 8.00017 25.1119 -12.2033 -170.34 3.11742 179.139
lowerback -6.26267 0.503449 -7.29281
upperback 1.67745 1.20664 1.4042
thorax 5.10539 0.345111 5.7098
lowerneck -1.45694 -0.742496 -4.63709
upperneck 12.19 -0.955285 7.01358
head 3.91736 -0.109988 2.891
rclavicle 4.79568e-015 -4.77083e-015
rhumerus -35.5507 -24.0669 -75.4834
rradius 28.2857
rwrist 11.7196
rhand -15.5709 -36.5537
rfingers 7.12502
rthumb 10.614 -66.2656
lclavicle 4.79568e-015 -4.77083e-015
lhumerus -33.4327 19.6345 76.9738
lradius 13.6394
lwrist -38.051
lhand -24.4619 -21.6486
lfingers 7.12502
lthumb 2.03124 8.32144
rfemur -9.42168 6.99333 17.0527
rtibia 12.6967
rfoot -23.7448 -3.7283
rtoes -26.4375
lfemur -7.97238 -9.15575 -22.4458
ltibia 12.2668
lfoot -28.2866 3.78487
ltoes -63.4421
382
root 8.00604 25.1095 -12.2177 -170.342 3.07806 179.283
lowerback -6.28031 0.588666 -7.18833
upperback 1.68194 1.3115 1.43934
thorax 5.10492 0.399657 5.69855
lowerneck -2.82444 -0.425574 -5.00039
upperneck 12.3763 -0.562101 7.44153
head 4.17946 0.0955354 3.10349
rclavicle 7.42958e-015 1.43125e-014
rhumerus -35.0213 -23.5451 -75.9682
rradius 28.2837
rwrist 11.823
rhand -15.8146 -36.5632
rfingers 7.12502
rthumb 10.379 -66.2871
lclavicle 7.42958e-015 1.43125e-014
lhumerus -33.1887 17.7423 78.0393
lradius 14.2539
lwrist -36.0315
lhand -24.6256 -21.7348
lfingers 7.12502
lthumb 1.87314 8.23669
rfemur -9.35049 7.14885 17.2537
rtibia 12.7043
rfoot -23.8412 -3.78205
rtoes -26.1174
lfemur -7.88287 -9.21455 -22.2633
ltibia 12.2451
lfoot -28.3229 3.83264
ltoes -63.4003
383
root 8.00868 25.1066 -12.2477 -170.312 2.90759 179.476
lowerback -6.54056 0.641698 -6.92494
upperback 1.68266 1.3786 1.44956
thorax 5.24769 0.434969 5.57346
lowerneck -2.61946 0.238615 -4.81993
upperneck 11.6691 -0.634464 7.23399
head 3.9255 -0.364556 2.96892
rclavicle 8.44835e-016 1.23246e-014
rhumerus -34.847 -23.4132 -76.2638
rradius 28.3932
rwrist 12.0872
rhand -16.1801 -36.7444
rfingers 7.12502
rthumb 10.0264 -66.4856
lclavicle 8.44835e-016 1.23246e-014
lhumerus -32.9133 16.6037 78.746
lradius 14.697
lwrist -34.6753
lhand -24.2585 -21.4462
lfingers 7.12502
lthumb 2.22774 8.52193
rfemur -9.11841 7.06159 17.5172
rtibia 12.5364
rfoot -23.9129 -3.74913
rtoes -25.6321
lfemur -7.71347 -9.35475 -22.0772
ltibia 12.1355
lfoot -28.3727 3.78632
ltoes -63.3468
384
root 8.00954 25.1014 -12.2787 -170.326 2.43637 179.236
lowerback -6.81649 0.54535 -7.07498
upperback 1.69364 1.28834 1.35809
thorax 5.4297 0.378884 5.56005
lowerneck -2.45674 0.127009 -4.93301
upperneck 11.4247 -0.740832 7.11471
head 3.83174 -0.424692 2.94493
rclavicle 3.52843e-015 -7.85199e-015
rhumerus -34.7524 -23.4018 -76.4198
rradius 28.4528
rwrist 12.4959
rhand -16.1833 -36.5189
rfingers 7.12502
rthumb 10.0233 -66.2602
lclavicle 3.52843e-015 -7.85199e-015
lhumerus -32.5684 16.303 79.1153
lradius 14.9092
lwrist -34.3202
lhand -24.0143 -21.6374
lfingers 7.12502
lthumb 2.46352 8.32812
rfemur -8.67895 6.43877 17.2998
rtibia 12.1925
rfoot -23.9888 -3.59195
rtoes -25.6831
lfemur -7.43349 -9.64051 -22.4711
ltibia 11.9075
lfoot -28.344 3.52991
ltoes -63.3459
